<svg width="25" height="25" viewBox="0 0 25 25" fill="none" xmlns="http://www.w3.org/2000/svg">
<path d="M12.0825 0.136688C11.8862 0.136688 11.6898 0.141451 11.4937 0.151192C11.2976 0.160717 11.1017 0.17522 10.9062 0.194486C10.7109 0.213752 10.5159 0.237781 10.3217 0.266571C10.1275 0.295362 9.93402 0.328915 9.74136 0.367231C9.5487 0.405546 9.35733 0.448624 9.16684 0.496248C8.97634 0.544088 8.78693 0.596474 8.59903 0.653406C8.41113 0.710338 8.22474 0.772033 8.03987 0.838057C7.85501 0.904297 7.67165 0.975083 7.49025 1.0502C7.30884 1.12531 7.12939 1.20476 6.95188 1.28875C6.77437 1.37274 6.59903 1.46106 6.42563 1.55371C6.25245 1.64615 6.08165 1.74291 5.91324 1.844C5.74482 1.94488 5.579 2.04987 5.41556 2.15897C5.25234 2.26807 5.09172 2.38128 4.93413 2.49818C4.77632 2.61529 4.62154 2.73608 4.46979 2.86055C4.31804 2.98524 4.16933 3.11339 4.02386 3.24522C3.87817 3.37705 3.73616 3.51256 3.59719 3.65132C3.45821 3.7903 3.32291 3.93252 3.19108 4.07799C3.05925 4.22346 2.93088 4.37217 2.80641 4.52392C2.68172 4.67567 2.56093 4.83044 2.44403 4.98825C2.32692 5.14606 2.21392 5.30647 2.10482 5.4699C1.99571 5.63312 1.89072 5.79894 1.78963 5.96735C1.68875 6.13598 1.59199 6.30678 1.49934 6.47996C1.40691 6.65314 1.31858 6.82848 1.23459 7.00598C1.1506 7.18349 1.07115 7.36295 0.995822 7.54457C0.920705 7.72597 0.850135 7.9091 0.783894 8.09397C0.71787 8.27884 0.656175 8.46522 0.599242 8.65333C0.542093 8.84123 0.489706 9.03043 0.442082 9.22092C0.394458 9.41142 0.35138 9.60299 0.313064 9.79566C0.274748 9.9881 0.241195 10.1816 0.212404 10.3758C0.183613 10.5702 0.159584 10.765 0.140318 10.9605C0.121052 11.156 0.106548 11.3517 0.0968068 11.5478C0.087282 11.7439 0.0825195 11.9402 0.0825195 12.1366C0.0825195 12.3331 0.087282 12.5293 0.0968068 12.7254C0.106548 12.9215 0.121052 13.1174 0.140318 13.3129C0.159584 13.5084 0.183613 13.7032 0.212404 13.8974C0.241195 14.0918 0.274748 14.2851 0.313064 14.4777C0.35138 14.6704 0.394458 14.862 0.442082 15.0525C0.489706 15.2429 0.542093 15.4321 0.599242 15.62C0.656175 15.8079 0.71787 15.9943 0.783894 16.1794C0.850135 16.3643 0.920705 16.5474 0.995822 16.7288C1.07115 16.9102 1.1506 17.0897 1.23459 17.2674C1.31858 17.4449 1.40691 17.6202 1.49934 17.7934C1.59199 17.9666 1.68875 18.1374 1.78963 18.3058C1.89072 18.4742 1.99571 18.6403 2.10482 18.8035C2.21392 18.9667 2.32692 19.1273 2.44403 19.2849C2.56093 19.4427 2.68172 19.5975 2.80641 19.7492C2.93088 19.9012 3.05925 20.0499 3.19108 20.1954C3.32291 20.3409 3.45821 20.4831 3.59719 20.6218C3.73616 20.7608 3.87817 20.8961 4.02386 21.0279C4.16933 21.16 4.31804 21.2881 4.46979 21.4128C4.62154 21.5373 4.77632 21.6581 4.93413 21.7752C5.09172 21.8921 5.25234 22.0051 5.41556 22.1142C5.579 22.2233 5.74482 22.3285 5.91324 22.4294C6.08165 22.5303 6.25245 22.627 6.42563 22.7197C6.59903 22.8123 6.77437 22.9004 6.95188 22.9844C7.12939 23.0684 7.30884 23.1481 7.49025 23.2232C7.67165 23.2983 7.85501 23.3691 8.03987 23.4351C8.22474 23.5013 8.41113 23.5628 8.59903 23.62C8.78693 23.6769 8.97634 23.7293 9.16684 23.7769C9.35733 23.8248 9.5487 23.8676 9.74136 23.9059C9.93402 23.9442 10.1275 23.978 10.3217 24.0068C10.5159 24.0356 10.7109 24.0596 10.9062 24.0789C11.1017 24.0982 11.2976 24.1124 11.4937 24.1222C11.6898 24.1317 11.8862 24.1367 12.0825 24.1367C12.2789 24.1367 12.4752 24.1317 12.6713 24.1222C12.8675 24.1124 13.0634 24.0982 13.2586 24.0789C13.4541 24.0596 13.6489 24.0356 13.8433 24.0068C14.0375 23.978 14.231 23.9442 14.4237 23.9059C14.6161 23.8676 14.8077 23.8248 14.9982 23.7769C15.1887 23.7293 15.3781 23.6769 15.566 23.62C15.7539 23.5628 15.9403 23.5013 16.1252 23.4351C16.31 23.3691 16.4934 23.2983 16.6748 23.2232C16.8562 23.1481 17.0357 23.0684 17.2132 22.9844C17.3907 22.9004 17.566 22.8123 17.7394 22.7197C17.9126 22.627 18.0834 22.5303 18.2518 22.4294C18.4202 22.3283 18.586 22.2233 18.7495 22.1142C18.9127 22.0051 19.0731 21.8921 19.2309 21.7752C19.3887 21.6581 19.5435 21.5373 19.6952 21.4128C19.847 21.2881 19.9957 21.16 20.1412 21.0279C20.2869 20.8961 20.4289 20.7608 20.5679 20.6218C20.7066 20.4831 20.8421 20.3409 20.974 20.1954C21.1058 20.0499 21.2342 19.9012 21.3586 19.7492C21.4833 19.5975 21.6041 19.4427 21.721 19.2851C21.8381 19.1273 21.9511 18.9667 22.0602 18.8035C22.1693 18.6403 22.2743 18.4742 22.3754 18.3058C22.4763 18.1374 22.573 17.9666 22.6657 17.7934C22.7581 17.6202 22.8465 17.4449 22.9304 17.2674C23.0144 17.0897 23.0939 16.9102 23.1692 16.7288C23.2443 16.5474 23.3149 16.3643 23.3811 16.1794C23.4472 15.9943 23.5089 15.8079 23.5658 15.62C23.6229 15.4321 23.6753 15.2429 23.723 15.0525C23.7706 14.862 23.8137 14.6704 23.852 14.4777C23.8903 14.2851 23.9238 14.0918 23.9526 13.8974C23.9814 13.7032 24.0055 13.5084 24.0247 13.3129C24.044 13.1174 24.0585 12.9215 24.0682 12.7254C24.0778 12.5293 24.0825 12.3331 24.0825 12.1366C24.0825 11.9402 24.0778 11.7439 24.068 11.5478C24.0585 11.3517 24.044 11.156 24.0247 10.9605C24.0055 10.765 23.9814 10.5702 23.9526 10.3758C23.9238 10.1816 23.8903 9.9881 23.852 9.79566C23.8137 9.60299 23.7706 9.41142 23.723 9.22092C23.6753 9.03043 23.6229 8.84123 23.5658 8.65333C23.5089 8.46522 23.4472 8.27884 23.3811 8.09397C23.3149 7.9091 23.2443 7.72597 23.1692 7.54457C23.0939 7.36295 23.0144 7.18349 22.9304 7.00598C22.8465 6.82848 22.7581 6.65314 22.6657 6.47996C22.573 6.30678 22.4763 6.13598 22.3754 5.96735C22.2743 5.79894 22.1693 5.63312 22.0602 5.4699C21.9511 5.30647 21.8381 5.14606 21.721 4.98825C21.6041 4.83044 21.4833 4.67567 21.3586 4.52392C21.2342 4.37217 21.1058 4.22346 20.974 4.07799C20.8421 3.93252 20.7066 3.7903 20.5679 3.65132C20.4289 3.51256 20.2869 3.37705 20.1412 3.24522C19.9957 3.11339 19.847 2.98524 19.6952 2.86055C19.5435 2.73608 19.3887 2.61529 19.2309 2.49818C19.0731 2.38128 18.9127 2.26807 18.7495 2.15897C18.586 2.04987 18.4202 1.94488 18.2518 1.844C18.0834 1.74291 17.9126 1.64615 17.7394 1.55371C17.566 1.46106 17.3907 1.37274 17.2132 1.28875C17.0357 1.20476 16.8562 1.12531 16.6748 1.0502C16.4934 0.975083 16.31 0.904297 16.1252 0.838057C15.9403 0.772033 15.7539 0.710338 15.566 0.653406C15.3781 0.596474 15.1887 0.544088 14.9982 0.496248C14.8077 0.448624 14.6161 0.405546 14.4237 0.367231C14.231 0.328915 14.0375 0.295362 13.8433 0.266571C13.6489 0.237781 13.4541 0.213752 13.2586 0.194486C13.0634 0.17522 12.8675 0.160717 12.6713 0.151192C12.4752 0.141451 12.2789 0.136688 12.0825 0.136688Z" fill="#032046"/>
<path d="M17.8898 7.76595C17.78 7.6417 17.6261 7.57005 17.4637 7.56572C16.2054 7.53281 14.613 6.18917 13.5601 5.66185C12.9098 5.33714 12.481 5.12327 12.158 5.06677C12.1251 5.06244 12.0924 5.05919 12.0595 5.05919C12.0266 5.05919 11.9937 5.06244 11.9612 5.06742C11.6382 5.1237 11.209 5.33779 10.5598 5.6625C9.5064 6.18917 7.91402 7.53325 6.65501 7.56572C6.4933 7.57005 6.33874 7.64235 6.22899 7.76595C6.11815 7.88978 6.06122 8.05451 6.06945 8.22271C6.34025 13.7103 8.31103 17.1065 11.7698 19.0803C11.8599 19.1311 11.9597 19.1576 12.0595 19.1576C12.1593 19.1576 12.2591 19.1311 12.3489 19.0803C15.8077 17.1065 17.7785 13.7103 18.0493 8.22271C18.0575 8.05451 18.0006 7.88978 17.8898 7.76595Z" fill="white"/>
<path d="M19.4422 3.40828L18.9054 3.77499C16.0981 5.69076 13.2234 9.65695 11.7892 12.8815C11.5676 12.5722 11.5007 12.4696 11.2861 12.1256C10.4092 10.9443 9.2974 9.93036 8.76985 9.55564L7.94574 9.8994L7.97172 9.94832C8.54083 10.5696 9.53964 11.9487 11.0446 14.9878C11.1368 15.119 11.2353 15.2478 11.3472 15.3679C11.6418 15.6827 11.9438 15.7489 12.1453 15.7489C12.1455 15.7489 12.1455 15.7489 12.1455 15.7489C12.7201 15.7489 13.0588 15.2963 13.2922 14.7665C14.7995 9.18504 18.3616 5.34289 19.902 4.02674L19.4422 3.40828Z" fill="#FF6A00"/>
</svg>
